<?xml version="1.0" encoding="UTF-8" standalone="no"?>
<!DOCTYPE svg PUBLIC "-//W3C//DTD SVG 1.1//EN" "http://www.w3.org/Graphics/SVG/1.1/DTD/svg11.dtd">
<svg width="100%" height="100%" viewBox="0 0 72 72" version="1.1" xmlns="http://www.w3.org/2000/svg" xmlns:xlink="http://www.w3.org/1999/xlink" xml:space="preserve" xmlns:serif="http://www.serif.com/" style="fill-rule:evenodd;clip-rule:evenodd;stroke-linejoin:round;stroke-miterlimit:2;">
    <g transform="matrix(2.13736,0,0,2.13543,-42.5309,-40.4099)">
        <path d="M38.135,51.837L35.406,51.837L35.406,46.786C30.9,46.856 26.388,48.102 22.218,45.757C25.889,43.349 30.347,36.855 30.347,36.855C30.347,36.855 26.623,36.409 25.576,35.619C29.348,34.154 32.764,28.535 32.764,28.535L29.721,28.476L36.727,19.726C36.727,19.726 40.836,25.987 43.733,28.445C42.678,28.831 40.722,28.549 40.722,28.549C40.722,28.549 44.024,34.062 47.896,35.613C46.534,36.713 43.037,36.749 43.037,36.749C43.037,36.749 47.579,43.324 51.266,45.761C47.099,48.111 42.595,46.863 38.137,46.786L38.137,51.838L38.135,51.838L38.135,51.837Z" style="fill:rgb(0,136,69);fill-rule:nonzero;"/>
    </g>
</svg>
